<?xml version="1.0" encoding="utf-8"?><svg xmlns="http://www.w3.org/2000/svg" xmlns:xlink="http://www.w3.org/1999/xlink" width="407" height="846" preserveAspectRatio="xMidYMid" viewBox="0 0 407 846" style="z-index:1;margin-right:-2px;display:block;background-repeat-y:initial;background-repeat-x:initial;animation-play-state:paused" ><g transform="translate(203.5,423) scale(1,1) translate(-203.5,-423)" style="transform:matrix(1, 0, 0, 1, 0, 0);animation-play-state:paused" ><linearGradient id="lg-0.21896457798551805" x1="0" x2="1" y1="0" y2="0" style="animation-play-state:paused" ><stop stop-color="#6252c5" offset="0" style="animation-play-state:paused" ></stop>

  
<stop stop-color="#2a9fde" offset="1" style="animation-play-state:paused" ></stop></linearGradient>
<path d="M 0 0 L 0 678.797 Q 101.75 611.324 203.5 592.325 T 407 471.381 L 407 0 Z" fill="url(#lg-0.21896457798551805)" opacity="0.4" style="opacity:0.4;animation-play-state:paused" ></path>
<path d="M 0 0 L 0 714.986 Q 101.75 615.2 203.5 576.701 T 407 478.468 L 407 0 Z" fill="url(#lg-0.21896457798551805)" opacity="0.4" style="opacity:0.4;animation-play-state:paused" ></path>
<path d="M 0 0 L 0 698.72 Q 101.75 588.995 203.5 571.07 T 407 463.864 L 407 0 Z" fill="url(#lg-0.21896457798551805)" opacity="0.4" style="opacity:0.4;animation-play-state:paused" ></path>
<path d="M 0 0 L 0 710.234 Q 101.75 698.7 203.5 657.609 T 407 450.229 L 407 0 Z" fill="url(#lg-0.21896457798551805)" opacity="0.4" style="opacity:0.4;animation-play-state:paused" ></path>
<path d="M 0 0 L 0 782.162 Q 101.75 663.923 203.5 613.488 T 407 519.651 L 407 0 Z" fill="url(#lg-0.21896457798551805)" opacity="0.4" style="opacity:0.4;animation-play-state:paused" ></path>
<path d="M 0 0 L 0 701.596 Q 101.75 625.925 203.5 596.349 T 407 493.271 L 407 0 Z" fill="url(#lg-0.21896457798551805)" opacity="0.4" style="opacity:0.4;animation-play-state:paused" ></path></g></svg>