<?xml version="1.0" encoding="utf-8"?><svg xmlns="http://www.w3.org/2000/svg" xmlns:xlink="http://www.w3.org/1999/xlink" width="2031" height="948" preserveAspectRatio="xMidYMid" viewBox="0 0 2031 948" style="z-index:1;margin-right:-2px;display:block;background-repeat-y:initial;background-repeat-x:initial;animation-play-state:paused" ><g transform="translate(1015.5,474) scale(1,1) translate(-1015.5,-474)" style="transform:matrix(1, 0, 0, 1, 0, 0);animation-play-state:paused" ><linearGradient id="lg-0.1594536944939393" x1="0" x2="1" y1="0" y2="0" style="animation-play-state:paused" ><stop stop-color="#449744" offset="0" style="animation-play-state:paused" ></stop>

  
<stop stop-color="#449744" offset="1" style="animation-play-state:paused" ></stop></linearGradient>
<path d="M 0 0 L 0 954.583 Q 203.1 806.202 406.2 783.632 T 812.4 605.723 T 1218.6 373.783 T 1624.8 323.131 T 2031 130.421 L 2031 0 Z" fill="url(#lg-0.1594536944939393)" opacity="0.4" style="opacity:0.4;animation-play-state:paused" ></path>
<path d="M 0 0 L 0 972 Q 203.1 764.3 406.2 731.367 T 812.4 668.137 T 1218.6 408.256 T 1624.8 295.237 T 2031 82.4634 L 2031 0 Z" fill="url(#lg-0.1594536944939393)" opacity="0.4" style="opacity:0.4;animation-play-state:paused" ></path>
<path d="M 0 0 L 0 938.438 Q 203.1 725.646 406.2 703.958 T 812.4 483.508 T 1218.6 364.979 T 1624.8 131.596 T 2031 40.2626 L 2031 0 Z" fill="url(#lg-0.1594536944939393)" opacity="0.4" style="opacity:0.4;animation-play-state:paused" ></path>
<path d="M 0 0 L 0 859.199 Q 203.1 729.697 406.2 693.887 T 812.4 569.202 T 1218.6 359.785 T 1624.8 249.204 T 2031 6.40305 L 2031 0 Z" fill="url(#lg-0.1594536944939393)" opacity="0.4" style="opacity:0.4;animation-play-state:paused" ></path>
<path d="M 0 0 L 0 922.52 Q 203.1 743.694 406.2 719.514 T 812.4 646.773 T 1218.6 421.816 T 1624.8 239.635 T 2031 123.15 L 2031 0 Z" fill="url(#lg-0.1594536944939393)" opacity="0.4" style="opacity:0.4;animation-play-state:paused" ></path></g></svg>